PathFileType  4	(X/Y/Z) C:\Users\antoi\Documents\MyRepositories\mobilecap\ResultsAnalysis
DataRate	CameraRate	NumFrames	NumMarkers	Units	OrigDataRate	OrigDataStartFrame	OrigNumFrames
100.0	100.0	5	51	mm	100.0	259	295
Frame#	Time	r_knee			r_shank_antsup			r_ankle			r_calc			r_5meta			r_toe			L_knee			L_shank_antsup			L_ankle			L_calc			L_5meta			L_toe			r_sh2			r_sh3			r_sh4			L_sh2			L_sh3			r_thigh1			r_thigh2			r_thigh3			r_thigh4			r_thigh5			L_thigh1			L_thigh2			L_thigh3			L_thigh4			r.ASIS			r.PSIS			L.ASIS			L.PSIS			C7			R_Shoulder			L_Shoulder			R_Sternum			L_Sternum			R_humerus			R_elbow_med			R_elbow_lat			R_forearm			R_wrist_radius			R_wrist_ulna			L_humerus			L_elbow_med			L_elbow_lat			L_forearm			L_wrist_radius			L_wrist_ulna			R_HJC			L_HJC			R_HJC_reg			L_HJC_reg			
		X1	Y1	Z1	X2	Y2	Z2	X3	Y3	Z3	X4	Y4	Z4	X5	Y5	Z5	X6	Y6	Z6	X7	Y7	Z7	X8	Y8	Z8	X9	Y9	Z9	X10	Y10	Z10	X11	Y11	Z11	X12	Y12	Z12	X13	Y13	Z13	X14	Y14	Z14	X15	Y15	Z15	X16	Y16	Z16	X17	Y17	Z17	X18	Y18	Z18	X19	Y19	Z19	X20	Y20	Z20	X21	Y21	Z21	X22	Y22	Z22	X23	Y23	Z23	X24	Y24	Z24	X25	Y25	Z25	X26	Y26	Z26	X27	Y27	Z27	X28	Y28	Z28	X29	Y29	Z29	X30	Y30	Z30	X31	Y31	Z31	X32	Y32	Z32	X33	Y33	Z33	X34	Y34	Z34	X35	Y35	Z35	X36	Y36	Z36	X37	Y37	Z37	X38	Y38	Z38	X39	Y39	Z39	X40	Y40	Z40	X41	Y41	Z41	X42	Y42	Z42	X43	Y43	Z43	X44	Y44	Z44	X45	Y45	Z45	X46	Y46	Z46	X47	Y47	Z47	X48	Y48	Z48	X49	Y49	Z49	X50	Y50	Z50	X51	Y51	Z51	

259	2.58000000	-212.47312	1082.66708	-428.08576	-185.99550	963.61612	-417.79228	-263.92083	623.40343	-456.13717	-293.98155	615.29966	-535.13136	-187.21110	501.27362	-381.34713	-113.05539	526.46676	-408.47021	-123.80804	1088.36679	-783.13596	-80.88013	988.45004	-766.24997	-136.01759	637.25307	-791.62140	-209.99296	629.72876	-747.49138	-28.75269	511.53413	-780.24043	3.41417	537.79758	-714.88666	-175.56849	850.35328	-426.81356	-260.39468	954.32056	-409.14450	-252.40270	836.42959	-402.39681	-155.97709	984.94521	-815.07756	-123.13826	868.43325	-832.25490	-108.55677	1311.53253	-404.70851	-110.43868	1199.95400	-419.11705	-158.53061	1172.47424	-380.54045	-217.26462	1304.22586	-371.99148	-211.36505	1187.74767	-388.57697	-42.92325	1340.41904	-776.52992	-37.31643	1203.39145	-763.08715	-142.06043	1330.71452	-829.74569	-138.05551	1193.54715	-811.55693	-105.86276	1570.50521	-439.52561	-266.74755	1664.28528	-558.72820	-45.97999	1581.08105	-692.71989	-244.09411	1668.13322	-652.29934	16.06303	2109.16551	-504.74160	24.53425	2069.48897	-356.90905	66.75523	2100.40140	-642.98804	112.11628	1989.66475	-459.62508	118.36470	1986.74167	-500.51245	-21.51240	2056.88850	-218.25698	-120.44167	1941.25363	-36.10059	-136.28172	2026.52857	-42.76691	-22.03947	2060.47677	82.10556	38.31825	2074.73008	173.87708	8.54387	2082.43379	201.35776	28.99066	2103.52983	-808.10912	-113.91986	2035.91655	-971.88038	-89.62844	2114.02125	-974.48880	7.31884	2086.82777	-1113.58340	38.89011	2096.38674	-1221.59473	0.48162	2120.57140	-1239.39241	-194.89382	1518.26787	-496.94952	-146.09339	1516.16578	-704.67585	-186.99610	1518.25041	-499.37945	-146.59241	1525.11571	-666.28202	
260	2.59000000	-211.63399	1077.06672	-427.54549	-185.05194	958.10681	-417.08432	-263.40694	618.26468	-455.64258	-293.61207	609.45847	-534.72978	-186.27753	497.07725	-379.91659	-112.28241	522.17513	-407.52142	-123.21060	1083.13737	-783.28110	-80.61393	982.92439	-766.33046	-137.85023	632.45325	-792.34488	-211.24486	624.34416	-747.42483	-29.91692	507.37348	-783.98434	2.88574	532.76525	-718.64377	-174.73469	844.78792	-426.50837	-259.40235	948.78820	-408.24297	-251.47640	830.90946	-401.62327	-155.62261	979.85521	-815.49249	-123.19155	863.31749	-832.89720	-108.15529	1306.21040	-404.12485	-109.78377	1194.70233	-418.44889	-157.78507	1167.15413	-379.75190	-216.87815	1298.67674	-371.23204	-210.61512	1182.32009	-387.76059	-42.45168	1335.24547	-775.82649	-36.93306	1198.15216	-762.40812	-141.29514	1325.39731	-829.49000	-137.16468	1188.15911	-811.57189	-106.08571	1565.28661	-438.49161	-266.65495	1658.73476	-558.01418	-45.97722	1575.74096	-692.19461	-244.18559	1662.83366	-651.64634	17.86528	2102.61756	-504.47937	24.78049	2063.00682	-356.05094	68.08715	2092.89843	-644.24915	113.69364	1982.85596	-460.19174	119.54648	1979.86593	-501.13311	-23.34288	2048.44620	-217.44296	-125.66747	1929.99535	-39.10643	-140.77851	2015.36772	-44.28325	-28.91712	2046.62943	84.41507	28.66248	2059.01964	177.20072	-1.69903	2065.87462	204.23592	27.06270	2092.56898	-809.91800	-121.82801	2021.92935	-967.38370	-96.61178	2099.67088	-972.81050	-6.42185	2067.22122	-1114.25697	23.24429	2071.83956	-1223.52952	-15.71543	2096.38063	-1240.44603	-194.93580	1512.93610	-496.19008	-146.07171	1510.77868	-703.90079	-186.92919	1512.41322	-498.35113	-146.77728	1519.73592	-665.66253	
261	2.60000000	-210.84651	1070.44873	-426.87504	-184.21342	951.58998	-416.53971	-262.83355	612.00403	-455.14236	-292.96397	602.79273	-534.25309	-185.47967	491.61908	-378.60818	-111.46554	516.49776	-406.64487	-122.61881	1076.74528	-783.32381	-80.32103	976.38498	-766.60461	-139.71365	626.47510	-792.63915	-212.43862	617.84268	-747.24991	-31.01948	502.36814	-787.57879	2.36252	526.87914	-722.23233	-173.87732	838.20621	-426.11448	-258.49877	942.37627	-407.24990	-250.58802	824.38252	-400.90697	-155.29668	973.71282	-816.08320	-123.31354	857.19896	-833.47991	-107.77486	1299.91266	-403.54015	-109.15916	1188.55579	-417.58704	-156.99999	1160.69766	-379.13220	-216.43792	1292.20471	-370.40688	-209.78787	1175.78706	-387.25692	-42.21277	1328.96207	-774.96830	-36.67129	1191.86851	-761.87406	-140.79437	1319.12355	-829.18813	-136.51832	1181.76219	-811.60038	-106.40932	1559.21542	-437.41173	-266.65377	1652.40860	-557.54974	-46.08888	1569.18085	-691.29567	-244.32663	1656.63771	-651.00326	19.48356	2095.19395	-504.25325	24.98263	2055.72571	-355.25238	69.28122	2084.42500	-645.44442	115.06406	1975.27271	-460.60179	120.55704	1972.18063	-501.58516	-25.01675	2039.19706	-216.89843	-130.19244	1918.10469	-42.20432	-144.95779	2003.45137	-45.92120	-35.06487	2032.39299	86.62512	19.62375	2042.99907	179.86268	-11.29353	2048.88272	206.56025	25.23032	2081.35842	-810.49218	-129.37633	2007.28967	-962.27902	-103.15463	2084.35518	-970.89511	-19.57879	2045.97127	-1114.09918	8.12375	2046.40720	-1224.16651	-30.60902	2071.08552	-1240.36556	-195.23864	1506.81623	-495.27665	-146.17328	1504.27929	-702.93553	-187.02771	1505.78734	-497.26289	-147.01604	1513.36653	-664.73643	
262	2.61000000	-210.08275	1062.95196	-426.05231	-183.42208	944.06572	-416.01795	-262.16830	604.78159	-454.47765	-292.12092	595.15458	-533.74699	-184.77180	484.86102	-377.59480	-110.68352	509.52388	-405.71019	-121.97206	1069.28770	-783.21484	-80.02947	968.84878	-766.98068	-141.44113	619.55569	-793.04655	-213.45488	610.13886	-746.69829	-32.14276	496.42259	-791.00044	1.80269	520.08191	-725.57876	-173.04781	830.66027	-425.58481	-257.71725	934.88718	-406.40084	-249.68088	816.84955	-400.22684	-155.00745	966.53306	-816.57103	-123.55611	849.94417	-833.97933	-107.48047	1292.67406	-402.82414	-108.51564	1181.37647	-416.77003	-156.18614	1153.15985	-378.63362	-216.02167	1284.75586	-369.59265	-209.04338	1168.17990	-386.95490	-42.23295	1321.45665	-774.03237	-36.41853	1184.51014	-761.43545	-140.48935	1311.85784	-828.87079	-135.99071	1174.38449	-811.72697	-106.76774	1552.06566	-436.53850	-266.69093	1645.10338	-557.23324	-46.24313	1561.48850	-690.56665	-244.46320	1649.50120	-650.42045	21.08063	2086.99960	-503.66828	25.08259	2047.59084	-354.52461	70.33967	2074.98200	-646.57210	116.26707	1966.70822	-460.67945	121.34841	1963.48679	-501.70543	-26.64965	2029.13220	-216.57271	-134.15335	1905.37051	-45.40455	-148.82929	1990.70955	-47.73284	-41.11941	2017.35019	88.10702	11.28424	2026.33975	181.99387	-20.18386	2031.38815	208.28484	23.23762	2069.85290	-810.23553	-136.45088	1991.94192	-956.62735	-109.32549	2068.05974	-968.72262	-30.69485	2022.92132	-1112.81098	-6.33303	2020.63148	-1223.39230	-44.28444	2044.84962	-1239.23450	-195.62778	1499.67109	-494.52096	-146.39894	1496.75219	-702.13637	-187.21189	1498.05021	-496.47371	-147.23960	1505.95963	-664.05475	
263	2.62000000	-209.41268	1054.53315	-425.21898	-182.59917	935.55943	-415.40748	-261.38513	596.44502	-453.89274	-291.15101	586.51351	-533.35156	-184.04003	476.88694	-376.72741	-109.92291	501.48692	-404.66847	-121.34865	1060.96703	-783.17530	-79.80554	960.27762	-767.25611	-143.03442	611.71218	-793.66702	-214.29509	601.43663	-746.10343	-33.26190	489.38489	-794.24185	1.26573	512.25754	-728.67323	-172.16153	822.14364	-425.07098	-256.97309	926.26129	-405.82716	-248.77995	808.29105	-399.66960	-154.79029	958.29399	-816.72249	-123.89699	841.53160	-834.37092	-107.27740	1284.37590	-402.15120	-107.95970	1173.07099	-416.13671	-155.52287	1144.65733	-378.20773	-215.71665	1276.19682	-368.91161	-208.46328	1159.61822	-386.53390	-42.35936	1312.98079	-773.44245	-36.15362	1176.14035	-761.16782	-140.36122	1303.55160	-828.60678	-135.51709	1166.00941	-811.95888	-107.07193	1543.73531	-435.78349	-266.68425	1636.76586	-556.94587	-46.43519	1552.67481	-689.93135	-244.48836	1641.41600	-650.10219	22.64193	2077.95609	-502.80076	25.13115	2038.62987	-353.93274	71.26486	2064.57030	-647.63082	117.39019	1957.17901	-460.55553	122.01230	1953.82438	-501.62541	-28.29718	2018.29940	-216.35013	-137.69466	1891.65756	-48.61662	-152.48819	1977.04161	-49.54410	-47.25500	2001.45059	88.52678	3.65390	2008.72454	183.82123	-28.32377	2013.23225	209.44921	20.68293	2057.29502	-810.04362	-143.13831	1975.80685	-950.79665	-115.32148	2050.92468	-966.17830	-40.17156	1999.25793	-1110.36430	-19.26537	1993.83520	-1221.27692	-56.87422	2017.88512	-1237.09269	-196.05409	1491.44929	-493.92667	-146.66159	1488.17885	-701.49774	-187.40231	1489.14317	-495.86316	-147.45697	1497.51096	-663.51357	
